<svg xmlns="http://www.w3.org/2000/svg" width="28" height="28" viewBox="0 0 28 28">
  <g fill="none">
    <path fill="#000" d="M14,0 C6.26794317,0 0,6.26813493 0,14 C0,21.7321121 6.26794317,28 14,28 C21.7319333,28 28,21.7321121 28,14 C28,6.26813493 21.7319333,0 14,0 Z"/>
    <path fill="#FFF" d="M20.4214918,17.3936842 C20.582682,17.68 20.4859679,18.0505263 20.2200041,18.2273684 L14.3123846,21.9157895 C14.2156705,21.9747368 14.1108969,22 14.0061233,22 C13.9013497,22 13.7965761,21.9747368 13.699862,21.9157895 L7.78418307,18.2189474 C7.5101598,18.0505263 7.42150521,17.68 7.57463586,17.3936842 L13.4822553,6.32 C13.5870289,6.11789474 13.7804571,6 13.9980638,6 C14.2156705,6 14.4090987,6.11789474 14.5138723,6.32 L20.4214918,17.3936842 Z M16.7947131,14.2273684 L16.7947131,14.2273684 C16.8430702,14.3873684 16.8833677,14.5473684 16.8833677,14.7073684 L16.9559033,15.0105263 C17.0284389,15.2715789 17.2782836,15.9873684 17.6570805,16.1894737 C18.3099007,16.5431579 19.156149,16.9810526 19.63166,17.2252632 L14.2720871,7.17052632 L14.2720871,11.5157895 C14.2720871,12.3663158 13.0953989,12.9473684 12.9583873,13.0063158 L12.7085425,13.1326316 C12.5231738,13.2589474 12.3619837,13.4021053 12.2169125,13.5705263 C12.208853,13.5789474 12.208853,13.5873684 12.2007935,13.5957895 C12.1685555,13.6378947 12.144377,13.6715789 12.1121389,13.7136842 C12.1040794,13.7136842 12.1040794,13.7221053 12.1040794,13.7221053 C12.0718414,13.7642105 12.0396034,13.8063158 12.0154248,13.8484211 C12.0073653,13.8568421 12.0073653,13.8652632 11.9993058,13.8736842 C11.9751273,13.9157895 11.9590083,13.9494737 11.9348297,13.9915789 C11.9267702,14 11.9267702,14.0084211 11.9187107,14.0168421 C11.8864727,14.0589474 11.8703537,14.1010526 11.8461752,14.1515789 C11.8381157,14.1684211 11.8381157,14.1768421 11.8300561,14.1852632 C11.8139371,14.2189474 11.7978181,14.2610526 11.7816991,14.3031579 C11.7736396,14.3115789 11.7736396,14.3284211 11.7655801,14.3368421 L11.717223,14.4884211 C11.717223,14.4968421 11.7091635,14.5052632 11.7091635,14.5136842 C11.701104,14.5557895 11.684985,14.5978947 11.6769255,14.64 C11.6769255,14.6568421 11.668866,14.6652632 11.668866,14.6821053 C11.6608065,14.7410526 11.652747,14.7915789 11.6446875,14.8421053 L11.6446875,14.8589474 C11.6366279,14.9094737 11.6285684,14.9515789 11.6285684,15.0021053 L11.6285684,15.0442105 C11.6205089,15.1031579 11.6205089,15.1536842 11.6205089,15.2126316 L11.6205089,15.2547368 C11.6285684,15.4905263 11.6608065,15.7178947 11.7252825,15.9368421 C11.4915568,15.8189474 11.2739501,15.7263158 11.0644029,15.6757895 C11.0402243,15.5326316 11.0321648,15.3726316 11.0321648,15.2210526 L11.0321648,15.0947368 C11.0402243,15.0610526 11.0402243,15.0357895 11.0402243,15.0021053 C11.0402243,14.9684211 11.0482839,14.9431579 11.0482839,14.9094737 C11.0482839,14.8842105 11.0563434,14.8673684 11.0563434,14.8421053 C11.0644029,14.8084211 11.0644029,14.7747368 11.0724624,14.7410526 C11.0805219,14.7157895 11.0805219,14.6905263 11.0885814,14.6652632 C11.0966409,14.64 11.0966409,14.6063158 11.1047004,14.5810526 C11.1127599,14.5642105 11.1127599,14.5389474 11.1208194,14.5221053 C11.1288789,14.4884211 11.144998,14.4463158 11.1530575,14.4042105 C11.161117,14.3873684 11.161117,14.3705263 11.1691765,14.3536842 C11.1852955,14.32 11.193355,14.2947368 11.2014145,14.2610526 C11.209474,14.2442105 11.209474,14.2357895 11.2175335,14.2189474 L11.2658906,14.0926316 C11.2739501,14.0757895 11.2739501,14.0673684 11.2820096,14.0505263 C11.2981286,14.0084211 11.3142476,13.9747368 11.3303666,13.9326316 C11.3303666,13.9326316 11.3384261,13.9242105 11.3384261,13.9157895 C11.3545452,13.8821053 11.3706642,13.84 11.3948427,13.7978947 C11.4029022,13.7810526 11.4029022,13.7726316 11.4109617,13.7642105 L11.4834973,13.6378947 C11.4834973,13.6294737 11.4915568,13.6294737 11.4915568,13.6210526 C11.5157353,13.5789474 11.5399139,13.5452632 11.5640924,13.5031579 C11.5640924,13.4947368 11.5721519,13.4947368 11.5721519,13.4863158 C11.6043899,13.4442105 11.6285684,13.4021053 11.6608065,13.36 L11.668866,13.3515789 C11.7252825,13.2673684 11.7897586,13.1915789 11.8622942,13.1157895 L11.8703537,13.1073684 C11.9348297,13.0315789 12.0073653,12.9557895 12.0879604,12.8884211 C12.2169125,12.7789474 12.3458647,12.6778947 12.4828763,12.5936842 L12.4989953,12.5852632 C12.5715309,12.5431579 12.636007,12.5010526 12.7085425,12.4673684 L12.7568996,12.4421053 C13.4903148,12.0968421 13.7079215,11.6926316 13.7079215,11.5410526 L13.7079215,7.17052632 L8.39670569,17.1410526 C8.88027617,16.8463158 9.67816748,16.4 10.3793447,16.1642105 C10.717844,16.0547368 11.161117,16.1557895 11.684985,16.4673684 C12.0476629,16.6863158 12.3055671,16.9305263 12.3136266,16.9389474 L12.5231738,17.1410526 C12.6601855,17.2589474 12.8052566,17.3515789 12.9664468,17.4357895 C12.9825658,17.4442105 13.0067443,17.4610526 13.0309229,17.4694737 C13.0389824,17.4778947 13.0551014,17.4778947 13.0631609,17.4863158 C13.0873394,17.5031579 13.1115179,17.5115789 13.1356965,17.52 C13.143756,17.5284211 13.159875,17.5284211 13.1679345,17.5368421 C13.3774817,17.6210526 13.5950884,17.6715789 13.8288142,17.6884211 C13.667624,17.8484211 13.5144933,18.0336842 13.4097197,18.2442105 C13.2727081,18.2105263 13.1356965,18.1684211 12.9986848,18.1178947 C12.9825658,18.1178947 12.9745063,18.1094737 12.9664468,18.1094737 C12.9503278,18.1010526 12.9422683,18.1010526 12.9261492,18.0926316 C12.8294351,18.0505263 12.7407806,18.0084211 12.652126,17.9578947 C12.652126,17.9578947 12.6440665,17.9494737 12.636007,17.9494737 L12.5392929,17.8989474 C12.3942217,17.8231579 12.2652696,17.7221053 12.144377,17.6210526 L12.1282579,17.6042105 C12.0718414,17.5621053 12.0154248,17.5115789 11.9670678,17.4610526 L11.9428893,17.4357895 C11.5560329,17.1073684 10.8709747,16.6526316 10.5485944,16.7621053 C9.72652453,17.0315789 8.72714552,17.6547368 8.38058667,17.8736842 L13.699862,21.1831579 L13.699862,18.9094737 C13.699862,18.0589474 14.8846097,17.4947368 15.0216214,17.4357895 L15.0699784,17.4105263 C15.3359422,17.2757895 15.5696679,17.0821053 15.7630961,16.8547368 C15.7711556,16.8547368 15.7711556,16.8463158 15.7792151,16.8378947 C15.8114531,16.8042105 15.8436912,16.7705263 15.8678697,16.7284211 C15.8759292,16.72 15.8839887,16.7031579 15.8920482,16.6947368 C15.9162268,16.6610526 15.9484648,16.6189474 15.9726433,16.5768421 C15.9807028,16.5768421 15.9807028,16.5684211 15.9887623,16.56 C16.0129409,16.5094737 16.0451789,16.4589474 16.0693574,16.4084211 C16.125774,16.2989474 16.1821905,16.1726316 16.2224881,16.0463158 C16.3192022,16.2484211 16.4400948,16.4673684 16.6012849,16.6694737 C16.5609874,16.7368421 16.5206899,16.8126316 16.4803923,16.88 C16.4803923,16.8884211 16.4723328,16.8884211 16.4723328,16.8968421 L16.3756187,17.0484211 C16.3675592,17.0568421 16.3594997,17.0736842 16.3514402,17.0821053 C16.3192022,17.1242105 16.2950236,17.1663158 16.2627856,17.2 C16.2547261,17.2168421 16.2386071,17.2252632 16.2305476,17.2421053 C16.1983095,17.2926316 16.158012,17.3347368 16.1177145,17.3768421 L16.1015954,17.3936842 C16.0612979,17.4273684 16.0290599,17.4694737 15.9887623,17.5031579 C15.9726433,17.5115789 15.9645838,17.5284211 15.9484648,17.5368421 C15.9404053,17.5536842 15.9242863,17.5621053 15.9162268,17.5705263 C15.7953341,17.68 15.666382,17.7810526 15.5293704,17.8652632 L15.5051918,17.8821053 C15.4407158,17.9242105 15.3762397,17.9578947 15.3117636,17.9915789 L15.2956446,18 C14.9813238,18.1431579 14.2962656,18.5642105 14.2962656,18.9263158 L14.2962656,21.2 L19.6074815,17.8821053 C19.2045061,17.68 18.1809485,17.1578947 17.4072358,16.7368421 C16.7302371,16.3747368 16.4400948,15.2968421 16.4078567,15.1705263 L16.3353212,14.8757895 C16.3111427,14.6821053 16.2627856,14.5052632 16.1983095,14.3368421 C16.1821905,14.3115789 16.174131,14.2778947 16.158012,14.2442105 C16.1499525,14.2189474 16.1338335,14.1936842 16.125774,14.1684211 C16.1096549,14.1431579 16.1015954,14.1178947 16.0854764,14.0926316 C16.0693574,14.0673684 16.0612979,14.0421053 16.0451789,14.0168421 C16.0290599,14 16.0210004,13.9747368 16.0048813,13.9494737 L15.9565243,13.8736842 C15.9484648,13.8484211 15.9323458,13.8315789 15.9162268,13.8063158 L15.8678697,13.7305263 C15.8517507,13.7136842 15.8356317,13.6884211 15.8195127,13.6715789 C15.8033936,13.6547368 15.7792151,13.6294737 15.7630961,13.6042105 L15.7147391,13.5536842 L15.650263,13.4863158 L15.6019059,13.4357895 C15.5777274,13.4105263 15.5535489,13.3936842 15.5293704,13.3684211 C15.5132513,13.3515789 15.4971323,13.3431579 15.4810133,13.3263158 C15.4568348,13.3010526 15.4245968,13.2757895 15.4004182,13.2589474 C15.3842992,13.2421053 15.3762397,13.2336842 15.3601207,13.2252632 C15.3278827,13.2 15.3037041,13.1747368 15.2714661,13.1578947 C15.2714661,13.1578947 15.2634066,13.1494737 15.2553471,13.1494737 C15.142514,13.0736842 15.0135618,13.0063158 14.8846097,12.9473684 C14.667003,12.8547368 14.4252178,12.7873684 14.175373,12.7705263 C14.3365632,12.6105263 14.4816343,12.4252632 14.5864079,12.2147368 C14.7234196,12.24 14.8604312,12.2821053 14.9893833,12.3326316 C15.0377404,12.3494737 15.0860974,12.3747368 15.1344545,12.3915789 C15.142514,12.3915789 15.142514,12.4 15.1505735,12.4 C15.20699,12.4252632 15.2634066,12.4505263 15.3117636,12.4757895 C15.3198232,12.4757895 15.3198232,12.4842105 15.3278827,12.4842105 C15.3762397,12.5094737 15.4326563,12.5347368 15.4810133,12.5684211 C15.4890728,12.5684211 15.4890728,12.5768421 15.4971323,12.5768421 C15.5535489,12.6105263 15.6019059,12.6442105 15.650263,12.6778947 L15.6583225,12.6863158 C15.7066795,12.72 15.7550366,12.7536842 15.8033936,12.7957895 L15.8114531,12.8042105 L15.9565243,12.9305263 C16.3353212,13.2757895 16.6254635,13.7221053 16.7947131,14.2273684 Z"/>
  </g>
</svg>
