<svg xmlns="http://www.w3.org/2000/svg" width="28" height="28" viewBox="0 0 28 28">
  <g fill="none">
    <path fill="#000" d="M14,0 C6.26794317,0 0,6.26813493 0,14 C0,21.7321121 6.26794317,28 14,28 C21.7319333,28 28,21.7321121 28,14 C28,6.26813493 21.7319333,0 14,0 Z"/>
    <path fill="#FFF" d="M6.10907537,13.3164006 L11.8840501,13.3164006 L11.8840501,10.3800001 L13.5479028,10.3800001 L13.5479028,17.6231751 L6.10907537,17.6231751 L6.10907537,13.3164006 Z M7.61697125,14.734544 L7.61697125,16.1046489 L11.8259196,16.1046489 L11.8259196,14.734544 L7.61697125,14.734544 Z"/>
    <polygon fill="#FFF" points="6.244 10.38 10.841 10.38 10.841 12.145 6.244 12.145"/>
    <polygon fill="#FFF" points="14.586 10.38 21.927 10.38 21.927 11.848 16.152 11.848 16.152 16.155 20.361 16.155 20.361 14.785 17.425 14.785 17.425 13.316 21.927 13.316 21.927 17.623 14.586 17.623"/>
  </g>
</svg>
